<?xml version="1.0" standalone="no"?>
<!DOCTYPE svg PUBLIC "-//W3C//DTD SVG 20010904//EN"
 "http://www.w3.org/TR/2001/REC-SVG-20010904/DTD/svg10.dtd">
<svg version="1.0" xmlns="http://www.w3.org/2000/svg"
 width="700.000000pt" height="700.000000pt" viewBox="0 0 700.000000 700.000000"
 preserveAspectRatio="xMidYMid meet">
<metadata>
Created by potrace 1.11, written by Peter Selinger 2001-2013
</metadata>
<g transform="translate(0.000000,700.000000) scale(0.100000,-0.100000)"
fill="#000000" stroke="none">
<path d="M3338 6705 c-2 -2 -39 -6 -82 -9 -186 -15 -301 -38 -516 -101 -277
-80 -548 -214 -785 -385 -55 -40 -102 -75 -105 -79 -3 -3 -34 -31 -70 -61
-196 -166 -381 -385 -523 -618 -65 -107 -187 -349 -200 -397 -3 -11 -17 -51
-31 -90 -66 -175 -116 -411 -142 -660 -13 -129 -11 -2291 2 -2377 19 -118 53
-211 119 -323 75 -127 208 -253 346 -329 74 -40 179 -81 229 -90 19 -3 53 -8
75 -12 46 -8 953 -12 964 -4 4 3 7 528 6 1167 l0 1163 -582 0 -583 0 0 28 c-2
139 1 674 4 697 2 17 6 55 10 85 3 30 8 66 11 80 3 14 10 48 16 75 39 199 150
466 273 660 25 39 49 75 53 80 5 6 38 48 73 95 81 107 280 306 388 388 169
128 381 249 532 302 36 13 70 27 75 31 11 8 221 64 275 73 19 3 46 8 60 11 87
17 278 23 427 12 133 -10 360 -59 448 -96 11 -5 47 -19 80 -32 159 -60 370
-181 527 -301 114 -88 300 -273 390 -389 249 -320 403 -701 432 -1069 6 -66 9
-391 7 -642 l-1 -88 -583 0 -582 0 1 -1162 c1 -640 2 -1165 3 -1168 0 -3 214
-4 473 -4 504 2 556 6 682 55 154 61 313 181 411 310 94 124 158 281 173 423
9 90 8 2232 -2 2346 -4 47 -9 96 -11 110 -2 14 -7 43 -10 65 -3 23 -8 52 -10
65 -3 14 -8 41 -11 60 -19 124 -102 387 -175 553 -171 389 -466 763 -799 1012
-41 31 -82 62 -91 69 -46 38 -269 166 -374 216 -166 79 -391 160 -515 185 -8
2 -49 10 -90 19 -89 18 -120 23 -180 31 -25 3 -65 8 -90 11 -45 6 -417 14
-422 9z"/>
</g>
</svg>
